<svg width="1282" height="723" viewBox="0 0 1282 723" fill="none" xmlns="http://www.w3.org/2000/svg">
<path d="M0 3H1280V723H0V3Z" fill="#F6F8FA"/>
<path d="M12.7281 55.1765C12.7281 32.4353 31.1635 14 53.9046 14H56.5517C79.2928 14 97.7281 32.4353 97.7281 55.1765V165.824C97.7281 188.565 79.2928 207 56.5517 207H12.7281V55.1765Z" fill="#1A2F16"/>
<path d="M13 70.5C13 58.0736 23.0736 48 35.5 48V48C47.9264 48 58 58.0736 58 70.5V318.5C58 330.926 47.9264 341 35.5 341V341C23.0736 341 13 330.926 13 318.5V70.5Z" fill="#1A2F16"/>
<g filter="url(#filter0_d_7077_69)">
<path d="M12.7281 252H56.5517C79.2928 252 97.7282 270.435 97.7282 293.176V667.824C97.7282 690.565 79.2928 709 56.5517 709H53.9046C31.1635 709 12.7281 690.565 12.7281 667.824V252Z" fill="#1A2F16"/>
</g>
<path d="M55.294 252.588C42.624 252.588 32.3529 242.317 32.3529 229.647V229.647C32.3529 216.977 42.624 206.706 55.2941 206.706H211.176V252.588H55.294Z" fill="#F6F8FA"/>
<path d="M45.7146 117.059C45.0442 117.059 44.4362 117.465 44.1764 118.091C43.9165 118.716 44.062 119.43 44.5401 119.904L54.0291 129.423V135.399C54.0291 135.842 54.2057 136.264 54.5175 136.576L57.8433 139.911C58.3214 140.39 59.0334 140.531 59.6569 140.27C60.2805 140.01 60.6807 139.405 60.6807 138.733V129.423L70.1696 119.909C70.6477 119.43 70.788 118.716 70.5282 118.091C70.2683 117.465 69.6655 117.059 68.9952 117.059H45.7146Z" fill="white"/>
<path d="M57.3529 168.08C53.3209 168.08 50.0923 169.916 47.742 172.102C45.4066 174.273 43.8447 176.863 43.1012 178.644C42.9365 179.038 42.9365 179.477 43.1012 179.872C43.8447 181.653 45.4066 184.248 47.742 186.414C50.0923 188.594 53.3209 190.436 57.3529 190.436C61.3849 190.436 64.6135 188.599 66.9639 186.414C69.2992 184.243 70.8611 181.653 71.6047 179.872C71.7693 179.477 71.7693 179.038 71.6047 178.644C70.8611 176.863 69.2992 174.268 66.9639 172.102C64.6135 169.921 61.3849 168.08 57.3529 168.08ZM50.1672 179.258C50.1672 175.291 53.3858 172.072 57.3529 172.072C61.3201 172.072 64.5387 175.291 64.5387 179.258C64.5387 183.225 61.3201 186.444 57.3529 186.444C53.3858 186.444 50.1672 183.225 50.1672 179.258ZM57.3529 176.064C57.3529 177.826 55.9208 179.258 54.1592 179.258C53.5854 179.258 53.0465 179.108 52.5774 178.839C52.5275 179.383 52.5724 179.942 52.7221 180.495C53.4057 183.05 56.0355 184.567 58.5905 183.884C61.1454 183.2 62.6624 180.57 61.9787 178.015C61.37 175.735 59.2092 174.283 56.9337 174.482C57.1982 174.946 57.3529 175.485 57.3529 176.064Z" fill="white"/>
<path d="M43.8529 238.973V222.185C43.8529 220.929 45.1238 220.095 46.2945 220.453C50.9193 221.871 54.1888 220.75 57.4795 219.624C60.8808 218.46 64.3033 217.291 69.2551 218.915C70.2306 219.234 70.8529 220.203 70.8529 221.259V238.047C70.8529 239.303 69.582 240.137 68.4166 239.78C63.7918 238.361 60.517 239.482 57.2316 240.608C53.8302 241.772 50.4078 242.942 45.456 241.317C44.4804 240.998 43.8582 240.029 43.8582 238.973H43.8529ZM61.5717 230.116C61.5717 227.247 59.6838 224.919 57.3529 224.919C55.022 224.919 53.1342 227.247 53.1342 230.116C53.1342 232.986 55.022 235.313 57.3529 235.313C59.6838 235.313 61.5717 232.986 61.5717 230.116ZM50.181 238.648C50.4131 238.648 50.5976 238.443 50.5607 238.21C50.3181 236.705 49.1369 235.53 47.6498 235.341C47.4177 235.313 47.2279 235.508 47.2279 235.747V237.907C47.2279 238.102 47.3545 238.275 47.5443 238.324C48.4883 238.551 49.3531 238.654 50.181 238.654V238.648ZM66.9769 235.882C67.2406 235.925 67.4779 235.72 67.4779 235.449V233.143C67.4779 232.904 67.2881 232.704 67.056 232.737C65.7271 232.904 64.6355 233.868 64.2506 235.151C64.1767 235.406 64.3719 235.644 64.6302 235.649C65.3791 235.671 66.1595 235.741 66.9717 235.882H66.9769ZM67.4779 224.486V222.326C67.4779 222.131 67.3461 221.958 67.1615 221.909C66.2176 221.681 65.3527 221.579 64.5248 221.579C64.2927 221.579 64.1082 221.784 64.1451 222.017C64.3877 223.522 65.5689 224.697 67.056 224.886C67.2881 224.914 67.4779 224.719 67.4779 224.48V224.486ZM50.4552 225.076C50.5291 224.821 50.334 224.583 50.0756 224.578C49.3267 224.556 48.5463 224.486 47.7342 224.345C47.4705 224.302 47.2332 224.507 47.2332 224.778L47.2279 227.084C47.2279 227.323 47.4177 227.523 47.6498 227.491C48.9787 227.323 50.0703 226.359 50.4552 225.076Z" fill="#1A2F16"/>
<path d="M56.0219 270.09C56.8658 269.699 57.84 269.699 58.684 270.09L71.0656 275.811C71.547 276.032 71.8529 276.514 71.8529 277.046C71.8529 277.579 71.547 278.06 71.0656 278.281L58.684 284.002C57.84 284.393 56.8658 284.393 56.0219 284.002L43.6402 278.281C43.1588 278.054 42.8529 277.573 42.8529 277.046C42.8529 276.519 43.1588 276.032 43.6402 275.811L56.0219 270.09ZM45.5773 282.167L54.8834 286.466C56.4523 287.191 58.2592 287.191 59.8281 286.466L69.1342 282.167L71.0656 283.062C71.547 283.283 71.8529 283.764 71.8529 284.297C71.8529 284.829 71.547 285.311 71.0656 285.532L58.684 291.253C57.84 291.644 56.8658 291.644 56.0219 291.253L43.6402 285.532C43.1588 285.305 42.8529 284.824 42.8529 284.297C42.8529 283.77 43.1588 283.283 43.6402 283.062L45.5717 282.167H45.5773ZM43.6402 290.313L45.5717 289.418L54.8777 293.717C56.4467 294.442 58.2535 294.442 59.8224 293.717L69.1285 289.418L71.0599 290.313C71.5414 290.534 71.8472 291.015 71.8472 291.548C71.8472 292.08 71.5414 292.562 71.0599 292.782L58.6783 298.504C57.8344 298.895 56.8601 298.895 56.0162 298.504L43.6402 292.782C43.1588 292.556 42.8529 292.074 42.8529 291.548C42.8529 291.021 43.1588 290.534 43.6402 290.313Z" fill="white"/>
<path d="M63.8826 328.228H64.3529C66.2834 328.228 67.8529 329.797 67.8529 331.728V350.978C67.8529 352.908 66.2834 354.478 64.3529 354.478H50.3529C48.4224 354.478 46.8529 352.908 46.8529 350.978V331.728C46.8529 329.797 48.4224 328.228 50.3529 328.228H50.8232C51.4248 327.183 52.5568 326.478 53.8529 326.478H60.8529C62.149 326.478 63.281 327.183 63.8826 328.228ZM60.4154 332.603C61.1427 332.603 61.7279 332.017 61.7279 331.29C61.7279 330.563 61.1427 329.978 60.4154 329.978H54.2904C53.5631 329.978 52.9779 330.563 52.9779 331.29C52.9779 332.017 53.5631 332.603 54.2904 332.603H60.4154ZM53.8529 340.478C53.8529 339.51 53.0709 338.728 52.1029 338.728C51.1349 338.728 50.3529 339.51 50.3529 340.478C50.3529 341.446 51.1349 342.228 52.1029 342.228C53.0709 342.228 53.8529 341.446 53.8529 340.478ZM55.6029 340.478C55.6029 341.205 56.1881 341.79 56.9154 341.79H63.0404C63.7677 341.79 64.3529 341.205 64.3529 340.478C64.3529 339.75 63.7677 339.165 63.0404 339.165H56.9154C56.1881 339.165 55.6029 339.75 55.6029 340.478ZM55.6029 347.478C55.6029 348.205 56.1881 348.79 56.9154 348.79H63.0404C63.7677 348.79 64.3529 348.205 64.3529 347.478C64.3529 346.75 63.7677 346.165 63.0404 346.165H56.9154C56.1881 346.165 55.6029 346.75 55.6029 347.478ZM52.1029 349.228C53.0709 349.228 53.8529 348.446 53.8529 347.478C53.8529 346.51 53.0709 345.728 52.1029 345.728C51.1349 345.728 50.3529 346.51 50.3529 347.478C50.3529 348.446 51.1349 349.228 52.1029 349.228Z" fill="white"/>
<path d="M57.2061 35.7562C58.5973 35.6755 59.9246 35.7091 61.2896 36.0085C65.1241 36.864 68.4735 39.1817 70.6255 42.4686C70.301 42.2742 69.9362 41.9734 69.6146 41.7563C69.3243 41.5604 69.0433 41.3904 68.7433 41.2112C66.1177 39.6677 63.0737 38.988 60.041 39.268C56.6787 39.6002 53.4704 41.2358 51.1339 43.6551C49.7872 45.0496 48.562 46.5818 47.303 48.0543L40.7647 55.6988L37.4172 59.6408C37.0936 60.0222 36.1448 61.0789 35.9215 61.4546C35.8941 61.7978 37.263 63.0884 37.6099 63.496C37.8815 63.7433 40.2218 66.2791 40.2713 66.4149C40.0799 66.5108 37.7871 66.5068 37.3371 66.5146L27.7673 66.6772C27.3916 66.6836 25.2859 66.7495 25.1568 66.6812C25.2103 66.4287 25.7784 65.91 25.9801 65.6692L32.5507 57.9833L39.778 49.5217L45.1853 43.1795C45.9819 42.2542 46.7537 41.2979 47.5914 40.4127C49.5835 38.2755 52.1626 36.7745 55.0049 36.0982C55.6447 35.9447 56.5485 35.7749 57.2061 35.7562Z" fill="#D32F2F"/>
<path d="M89.1008 53.0407L89.116 53.0451L89.1199 53.1093C88.9961 53.4073 87.7927 54.7261 87.4867 55.0815L84.0698 59.0594L72.3502 72.8002C71.6807 73.5766 71.026 74.3678 70.3581 75.1457C68.1429 77.726 65.9962 80.4841 62.9778 82.1692C59.7204 83.9885 55.88 84.4596 52.2794 83.4816C49.6523 82.7473 47.5157 81.4846 45.5712 79.5707C45.0048 79.0132 44.2171 78.1394 43.8289 77.45C44.0473 77.597 44.2624 77.7488 44.474 77.9055C45.0264 78.2946 45.6038 78.6471 46.2025 78.9605C48.9075 80.3467 51.9799 80.8472 54.9849 80.3912C57.5198 80.0061 60.0553 78.8342 62.0284 77.1943C63.2043 76.217 64.2941 74.9094 65.2865 73.7414L67.5825 71.045L75.0301 62.3103C75.6533 61.5752 76.3119 60.8404 76.9228 60.094C77.3063 59.6255 78.2194 58.7212 78.4757 58.23C78.2244 57.9372 77.966 57.6619 77.698 57.3844C76.4146 56.0548 75.1911 54.6432 73.912 53.3124C74.6125 53.2798 75.3589 53.3008 76.0606 53.2998C76.8922 53.2915 77.7235 53.2786 78.5549 53.2609L89.1008 53.0407Z" fill="#44A749"/>
<path d="M54.9826 44.6923C55.5269 44.6608 58.7063 44.5856 58.9542 44.6934C59.1235 44.9906 59.0924 47.1763 59.0991 47.6918C59.3136 47.8039 59.5951 47.8943 59.8243 47.973C62.4555 48.8758 63.3876 51.7119 63.4872 54.2501C63.4944 54.4341 63.5641 55.1304 63.3125 55.1722C62.5251 55.3028 61.6966 55.2454 60.8985 55.284C60.5648 55.2972 59.6236 55.3468 59.3633 55.229C59.2322 55.0387 59.2518 54.8691 59.249 54.6419C59.237 53.6279 59.0269 52.0617 57.8721 51.7228C57.3377 51.566 56.5606 51.5773 56.0337 51.7623C55.6204 51.9074 55.2215 52.3483 55.0584 52.7564C54.8696 53.2516 54.8967 53.8981 55.047 54.398C55.9062 56.0997 57.7268 57.1554 59.1876 58.2659C60.897 59.5652 62.6717 61.3252 63.5143 63.319C64.7073 66.1415 63.8427 70.2847 60.7503 71.4855C60.4003 71.6214 60.0525 71.7213 59.7021 71.8515C59.6211 71.882 59.5086 71.9553 59.4894 72.0448C59.3576 72.634 59.606 74.4712 59.4276 74.9548C59.2679 75.0901 58.7129 75.0422 58.4729 75.0406C58.1664 75.0457 55.5278 75.1565 55.4707 74.9899C55.2081 74.1504 55.4455 73.0709 55.2964 72.2041C55.274 72.0745 53.7626 71.5762 53.5102 71.4455C53.0126 71.1935 52.5631 70.8565 52.1819 70.4495C51.0771 69.2563 50.718 67.601 50.6056 66.0305C50.5672 65.4947 50.5306 64.9636 50.5491 64.4258C50.553 64.311 50.5794 64.0391 50.6641 64.0091C51.1279 63.8446 54.4905 63.812 54.8149 63.9059C54.9432 64.0736 54.8981 64.6272 54.9039 64.8542C54.9119 65.254 54.9519 65.6524 55.0236 66.0457C55.3124 67.6998 56.0833 68.3799 57.8354 68.109C58.3355 68.0316 58.7421 67.7821 59.019 67.351C60.2866 65.3782 58.2782 63.7019 56.7997 62.658C55.1022 61.4413 53.4034 60.2973 52.0599 58.6728C49.4335 55.4968 49.909 49.3309 54.3004 47.9476C54.3915 47.919 54.768 47.7958 54.8081 47.7129C55.1209 47.0663 54.6115 45.2374 54.9826 44.6923Z" fill="#FEFEFE"/>
<g filter="url(#filter1_d_7077_69)">
<path d="M128.258 64C115.263 64 104.728 53.4655 104.728 40.4706V33.5V3L1279.73 3V58.1176C1279.73 61.3664 1277.09 64 1273.85 64L128.258 64Z" fill="#1A2F16"/>
</g>
<path d="M141.341 46H127.997V23.5938H133.044V41.9062H141.341V46ZM164.794 46H159.294L157.7 41.0156H149.731L148.153 46H142.684L150.841 23.5938H156.825L164.794 46ZM156.544 37.1406L154.138 29.6094C153.96 29.0469 153.835 28.375 153.763 27.5938H153.638C153.585 28.25 153.455 28.901 153.247 29.5469L150.809 37.1406H156.544ZM187.747 46H182.653L173.419 31.9219C172.877 31.099 172.502 30.4792 172.294 30.0625H172.231C172.315 30.8542 172.356 32.0625 172.356 33.6875V46H167.591V23.5938H173.028L181.919 37.2344C182.325 37.849 182.7 38.4583 183.044 39.0625H183.106C183.023 38.5417 182.981 37.5156 182.981 35.9844V23.5938H187.747V46ZM208.934 45.2031C207.299 45.9948 205.164 46.3906 202.528 46.3906C199.091 46.3906 196.388 45.3802 194.419 43.3594C192.45 41.3385 191.466 38.6458 191.466 35.2812C191.466 31.6979 192.57 28.7917 194.778 26.5625C196.997 24.3333 199.872 23.2188 203.403 23.2188C205.591 23.2188 207.434 23.4948 208.934 24.0469V28.9062C207.434 28.0104 205.726 27.5625 203.809 27.5625C201.705 27.5625 200.007 28.224 198.716 29.5469C197.424 30.8698 196.778 32.6615 196.778 34.9219C196.778 37.0885 197.388 38.8177 198.606 40.1094C199.825 41.3906 201.466 42.0312 203.528 42.0312C205.497 42.0312 207.299 41.5521 208.934 40.5938V45.2031ZM199.841 53.0469V50.8906C200.205 50.9531 200.58 50.9844 200.966 50.9844C202.247 50.9844 202.888 50.6042 202.888 49.8438C202.888 49.1562 202.309 48.8125 201.153 48.8125C201.018 48.8125 200.825 48.8229 200.575 48.8438V46H203.263V47.2812C205.21 47.3646 206.184 48.2292 206.184 49.875C206.184 52.0312 204.528 53.1094 201.216 53.1094C200.737 53.1094 200.278 53.0885 199.841 53.0469ZM232.544 46H227.044L225.45 41.0156H217.481L215.903 46H210.434L218.591 23.5938H224.575L232.544 46ZM224.294 37.1406L221.888 29.6094C221.71 29.0469 221.585 28.375 221.513 27.5938H221.388C221.335 28.25 221.205 28.901 220.997 29.5469L218.559 37.1406H224.294ZM260.872 46H255.888V32.5938C255.888 31.1458 255.95 29.5469 256.075 27.7969H255.95C255.69 29.1719 255.455 30.1615 255.247 30.7656L249.997 46H245.872L240.528 30.9219C240.382 30.5156 240.148 29.474 239.825 27.7969H239.684C239.82 30.0052 239.888 31.9427 239.888 33.6094V46H235.341V23.5938H242.731L247.309 36.875C247.674 37.9375 247.94 39.0052 248.106 40.0781H248.2C248.481 38.8385 248.778 37.7604 249.091 36.8438L253.669 23.5938H260.872V46ZM279.403 46H265.966V23.5938H278.888V27.7031H271.013V32.6875H278.341V36.7812H271.013V41.9062H279.403V46ZM303.153 46H298.059L288.825 31.9219C288.283 31.099 287.908 30.4792 287.7 30.0625H287.638C287.721 30.8542 287.763 32.0625 287.763 33.6875V46H282.997V23.5938H288.434L297.325 37.2344C297.731 37.849 298.106 38.4583 298.45 39.0625H298.513C298.429 38.5417 298.388 37.5156 298.388 35.9844V23.5938H303.153V46ZM324.013 27.7031H317.622V46H312.559V27.7031H306.2V23.5938H324.013V27.7031ZM335.309 46.3906C332.101 46.3906 329.487 45.349 327.466 43.2656C325.445 41.1719 324.434 38.4479 324.434 35.0938C324.434 31.5521 325.46 28.6875 327.513 26.5C329.565 24.3125 332.283 23.2188 335.669 23.2188C338.867 23.2188 341.45 24.2656 343.419 26.3594C345.398 28.4531 346.388 31.2135 346.388 34.6406C346.388 38.1615 345.362 41 343.309 43.1562C341.268 45.3125 338.601 46.3906 335.309 46.3906ZM335.528 27.5625C333.757 27.5625 332.351 28.2292 331.309 29.5625C330.268 30.8854 329.747 32.6406 329.747 34.8281C329.747 37.0469 330.268 38.8021 331.309 40.0938C332.351 41.3854 333.716 42.0312 335.403 42.0312C337.143 42.0312 338.523 41.4062 339.544 40.1562C340.565 38.8958 341.075 37.151 341.075 34.9219C341.075 32.599 340.58 30.7917 339.591 29.5C338.601 28.2083 337.247 27.5625 335.528 27.5625ZM349.091 45.1406V40.1406C349.997 40.901 350.981 41.474 352.044 41.8594C353.106 42.2344 354.179 42.4219 355.263 42.4219C355.898 42.4219 356.45 42.3646 356.919 42.25C357.398 42.1354 357.794 41.9792 358.106 41.7812C358.429 41.5729 358.669 41.3333 358.825 41.0625C358.981 40.7812 359.059 40.4792 359.059 40.1562C359.059 39.7188 358.934 39.3281 358.684 38.9844C358.434 38.6406 358.091 38.3229 357.653 38.0312C357.226 37.7396 356.716 37.4583 356.122 37.1875C355.528 36.9167 354.888 36.6406 354.2 36.3594C352.45 35.6302 351.143 34.7396 350.278 33.6875C349.424 32.6354 348.997 31.3646 348.997 29.875C348.997 28.7083 349.231 27.7083 349.7 26.875C350.169 26.0312 350.804 25.3385 351.606 24.7969C352.419 24.2552 353.356 23.8594 354.419 23.6094C355.481 23.349 356.606 23.2188 357.794 23.2188C358.96 23.2188 359.992 23.2917 360.888 23.4375C361.794 23.5729 362.627 23.7865 363.388 24.0781V28.75C363.013 28.4896 362.601 28.2604 362.153 28.0625C361.716 27.8646 361.263 27.7031 360.794 27.5781C360.325 27.4427 359.856 27.3438 359.388 27.2812C358.929 27.2188 358.492 27.1875 358.075 27.1875C357.502 27.1875 356.981 27.2448 356.513 27.3594C356.044 27.4635 355.648 27.6146 355.325 27.8125C355.002 28.0104 354.752 28.25 354.575 28.5312C354.398 28.8021 354.309 29.1094 354.309 29.4531C354.309 29.8281 354.408 30.1667 354.606 30.4688C354.804 30.7604 355.085 31.0417 355.45 31.3125C355.815 31.5729 356.257 31.8333 356.778 32.0938C357.299 32.3438 357.888 32.6042 358.544 32.875C359.44 33.25 360.242 33.651 360.95 34.0781C361.669 34.4948 362.283 34.9688 362.794 35.5C363.304 36.0312 363.695 36.6406 363.966 37.3281C364.237 38.0052 364.372 38.7969 364.372 39.7031C364.372 40.9531 364.132 42.0052 363.653 42.8594C363.184 43.7031 362.544 44.3906 361.731 44.9219C360.919 45.4427 359.971 45.8177 358.888 46.0469C357.815 46.276 356.679 46.3906 355.481 46.3906C354.252 46.3906 353.08 46.2865 351.966 46.0781C350.862 45.8698 349.903 45.5573 349.091 45.1406Z" fill="white"/>
<path d="M382.434 14.6C382.434 14.2686 382.211 14 381.934 14C381.658 14 381.434 14.2686 381.434 14.6V53.4C381.434 53.7314 381.658 54 381.934 54C382.211 54 382.434 53.7314 382.434 53.4V14.6Z" fill="white" fill-opacity="0.5"/>
<path d="M440.434 14.6C440.434 14.2686 440.211 14 439.934 14C439.658 14 439.434 14.2686 439.434 14.6V53.4C439.434 53.7314 439.658 54 439.934 54C440.211 54 440.434 53.7314 440.434 53.4V14.6Z" fill="white" fill-opacity="0.5"/>
<path d="M421.434 17H401.434C395.912 17 391.434 20.9165 391.434 25.7479V43.2436C391.434 48.0749 395.912 51.9914 401.434 51.9914H421.434C426.957 51.9914 431.434 48.0749 431.434 43.2436V25.7479C431.434 20.9165 426.957 17 421.434 17Z" fill="white" fill-opacity="0.08"/>
<path d="M399.881 24C399.299 24 398.771 24.3521 398.545 24.8937C398.319 25.4353 398.446 26.0536 398.861 26.4644L407.103 34.7105V39.8875C407.103 40.2711 407.256 40.6367 407.527 40.9075L410.416 43.7961C410.528 43.909 410.655 43.9992 410.79 44.0669C409.833 42.6723 409.274 40.9842 409.274 39.1653C409.274 34.6789 412.681 30.9914 417.05 30.5445L421.131 26.4644C421.546 26.0491 421.668 25.4308 421.442 24.8892C421.216 24.3475 420.684 24 420.102 24H399.881ZM417.935 45.6647C421.523 45.6647 424.434 42.7535 424.434 39.1653C424.434 35.5771 421.523 32.6659 417.935 32.6659C414.347 32.6659 411.436 35.5771 411.436 39.1653C411.436 42.7535 414.347 45.6647 417.935 45.6647ZM420.612 37.5088L418.955 39.1653L420.612 40.8217C420.891 41.1016 420.891 41.562 420.612 41.8418C420.332 42.1216 419.871 42.1216 419.591 41.8418L417.935 40.1853L416.279 41.8418C415.999 42.1216 415.538 42.1216 415.259 41.8418C414.979 41.562 414.979 41.1016 415.259 40.8217L416.915 39.1653L415.259 37.5088C414.979 37.229 414.979 36.7686 415.259 36.4888C415.538 36.209 415.999 36.209 416.279 36.4888L417.935 38.1452L419.591 36.4888C419.871 36.209 420.332 36.209 420.612 36.4888C420.891 36.7686 420.891 37.229 420.612 37.5088Z" fill="white"/>
<defs>
<filter id="filter0_d_7077_69" x="8.02227" y="252" width="94.4118" height="466.412" filterUnits="userSpaceOnUse" color-interpolation-filters="sRGB">
<feFlood flood-opacity="0" result="BackgroundImageFix"/>
<feColorMatrix in="SourceAlpha" type="matrix" values="0 0 0 0 0 0 0 0 0 0 0 0 0 0 0 0 0 0 127 0" result="hardAlpha"/>
<feOffset dy="4.70588"/>
<feGaussianBlur stdDeviation="2.35294"/>
<feComposite in2="hardAlpha" operator="out"/>
<feColorMatrix type="matrix" values="0 0 0 0 0 0 0 0 0 0 0 0 0 0 0 0 0 0 0.25 0"/>
<feBlend mode="normal" in2="BackgroundImageFix" result="effect1_dropShadow_7077_69"/>
<feBlend mode="normal" in="SourceGraphic" in2="effect1_dropShadow_7077_69" result="shape"/>
</filter>
<filter id="filter1_d_7077_69" x="102.928" y="3" width="1178.6" height="64.8" filterUnits="userSpaceOnUse" color-interpolation-filters="sRGB">
<feFlood flood-opacity="0" result="BackgroundImageFix"/>
<feColorMatrix in="SourceAlpha" type="matrix" values="0 0 0 0 0 0 0 0 0 0 0 0 0 0 0 0 0 0 127 0" result="hardAlpha"/>
<feOffset dy="2"/>
<feGaussianBlur stdDeviation="0.9"/>
<feComposite in2="hardAlpha" operator="out"/>
<feColorMatrix type="matrix" values="0 0 0 0 0 0 0 0 0 0 0 0 0 0 0 0 0 0 0.4 0"/>
<feBlend mode="normal" in2="BackgroundImageFix" result="effect1_dropShadow_7077_69"/>
<feBlend mode="normal" in="SourceGraphic" in2="effect1_dropShadow_7077_69" result="shape"/>
</filter>
</defs>
</svg>
